<svg width="21" height="17" viewBox="0 0 21 17" fill="none" xmlns="http://www.w3.org/2000/svg">
<path d="M10.5 12.75L10.5 6M10.5 6L13.5 9M10.5 6L7.5 9M5.25 15.75C2.76472 15.75 0.75 13.7353 0.75 11.25C0.75 9.25705 2.04555 7.5667 3.8404 6.97519C3.78105 6.6592 3.75 6.33323 3.75 6C3.75 3.10051 6.10051 0.75 9 0.75C11.4312 0.75 13.4765 2.4026 14.0737 4.64575C14.3654 4.55113 14.6767 4.5 15 4.5C16.6569 4.5 18 5.84315 18 7.5C18 7.84814 17.9407 8.18243 17.8316 8.49332C19.2453 9.03046 20.25 10.3979 20.25 12C20.25 14.0711 18.5711 15.75 16.5 15.75H5.25Z" stroke="#FD5725" stroke-width="1.5" stroke-linecap="round" stroke-linejoin="round"/>
</svg>
